<svg viewBox="0 0 35 35" xmlns="http://www.w3.org/2000/svg" xml:space="preserve" style="fill-rule:evenodd;clip-rule:evenodd;stroke-linejoin:round;stroke-miterlimit:2"><circle cx="5.28" cy="17.28" r="4.8"/><path d="M5.28 12A5.283 5.283 0 0 0 0 17.28a5.283 5.283 0 0 0 5.28 5.28 5.283 5.283 0 0 0 5.28-5.28A5.283 5.283 0 0 0 5.28 12Zm0 .48c2.649 0 4.8 2.151 4.8 4.8s-2.151 4.8-4.8 4.8a4.803 4.803 0 0 1-4.8-4.8c0-2.649 2.151-4.8 4.8-4.8Z" style="fill:#fff"/><circle cx="17.28" cy="17.28" r="4.8"/><path d="M17.28 12A5.283 5.283 0 0 0 12 17.28a5.283 5.283 0 0 0 5.28 5.28 5.283 5.283 0 0 0 5.28-5.28A5.283 5.283 0 0 0 17.28 12Zm0 .48c2.649 0 4.8 2.151 4.8 4.8s-2.151 4.8-4.8 4.8a4.803 4.803 0 0 1-4.8-4.8c0-2.649 2.151-4.8 4.8-4.8Z" style="fill:#fff"/><circle cx="29.28" cy="17.28" r="4.8"/><path d="M29.28 12A5.283 5.283 0 0 0 24 17.28a5.283 5.283 0 0 0 5.28 5.28 5.283 5.283 0 0 0 5.28-5.28A5.283 5.283 0 0 0 29.28 12Zm0 .48c2.649 0 4.8 2.151 4.8 4.8s-2.151 4.8-4.8 4.8a4.803 4.803 0 0 1-4.8-4.8c0-2.649 2.151-4.8 4.8-4.8Z" style="fill:#fff"/></svg>