<?xml version="1.0" standalone="no"?>
<!DOCTYPE svg PUBLIC "-//W3C//DTD SVG 20010904//EN"
 "http://www.w3.org/TR/2001/REC-SVG-20010904/DTD/svg10.dtd">
<svg version="1.0" xmlns="http://www.w3.org/2000/svg"
 width="700.000000pt" height="700.000000pt" viewBox="0 0 700.000000 700.000000"
 preserveAspectRatio="xMidYMid meet">
<metadata>
Created by potrace 1.14, written by Peter Selinger 2001-2017
</metadata>
<g transform="translate(0.000000,700.000000) scale(0.100000,-0.100000)"
fill="#000000" stroke="none">
<path d="M398 6836 c-98 -35 -166 -95 -215 -189 -25 -47 -28 -62 -28 -157 0
-94 3 -111 27 -160 35 -71 107 -143 178 -178 l55 -27 2853 -3 2852 -2 -2
-1908 -3 -1907 -420 -5 c-481 -6 -467 -3 -569 -100 -80 -75 -110 -149 -111
-265 0 -82 3 -97 32 -156 39 -79 102 -140 181 -177 l57 -27 417 -3 417 -3 3
-577 3 -577 27 -55 c35 -71 107 -143 178 -178 49 -24 66 -27 155 -27 87 0 107
3 157 27 73 34 142 103 176 176 l27 57 0 3090 0 3090 -28 53 c-39 75 -87 124
-159 163 l-63 34 -3080 2 c-2517 2 -3087 0 -3117 -11z"/>
<path d="M441 5319 c-105 -21 -198 -92 -251 -191 -30 -55 -35 -74 -38 -153 -3
-74 0 -100 18 -147 30 -80 104 -159 188 -200 l67 -33 910 -5 910 -5 82 -28
c160 -54 295 -169 372 -317 53 -101 73 -184 74 -300 1 -186 -58 -325 -193
-460 -65 -65 -103 -94 -160 -122 -154 -75 -92 -71 -1105 -77 l-910 -6 -63 -34
c-72 -39 -120 -88 -159 -163 l-28 -53 0 -1310 0 -1310 34 -63 c39 -72 88 -120
163 -159 l53 -28 1980 0 1980 0 63 34 c103 56 170 147 192 260 14 74 14 2808
0 2882 -22 113 -89 204 -192 259 -55 30 -74 35 -153 38 -75 3 -100 0 -148 -18
-80 -30 -165 -111 -203 -192 l-29 -63 -3 -1237 -2 -1238 -1505 0 -1505 0 0
835 0 834 723 4 722 3 105 26 c276 68 495 193 687 391 119 123 187 221 258
369 103 214 140 400 131 648 -6 170 -23 265 -76 415 -165 463 -563 801 -1063
902 -72 14 -189 17 -982 19 -495 1 -920 -2 -944 -7z"/>
</g>
</svg>
